<svg xmlns="http://www.w3.org/2000/svg" viewBox="0 0 512 512">
  <defs>
    <linearGradient id="neutral-grad" x1="0%" y1="0%" x2="100%" y2="100%">
      <stop offset="0%" stop-color="#1e293b" />
      <stop offset="100%" stop-color="#0f172a" />
    </linearGradient>
    <linearGradient id="bag-grad" x1="0%" y1="0%" x2="100%" y2="100%">
      <stop offset="0%" stop-color="#38bdf8" />
      <stop offset="100%" stop-color="#0284c7" />
    </linearGradient>
  </defs>
  <!-- Background -->
  <rect width="512" height="512" rx="128" fill="url(#neutral-grad)"/>
  <!-- Elegant minimalist shopping bag shape -->
  <path d="M192 192v-24c0-35.3 28.7-64 64-64s64 28.7 64 64v24h48c17.7 0 32 14.3 32 32v192c0 17.7-14.3 32-32 32H144c-17.7 0-32-14.3-32-32V224c0-17.7 14.3-32 32-32h48zm32 0h64v-24c0-17.7-14.3-32-32-32s-32 14.3-32 32v24z" fill="url(#bag-grad)"/>
</svg>
